HIERARCHY
ROOT Hips
{
    OFFSET 0.000000 0.000000 0.000000
    CHANNELS 6 Xposition Yposition Zposition Zrotation Xrotation Yrotation
    JOINT Spine
    {
        OFFSET -0.000000 7.933882 0.000000
        CHANNELS 3 Zrotation Xrotation Yrotation
        JOINT Spine1
        {
            OFFSET -0.000000 22.729401 0.000000
            CHANNELS 3 Zrotation Xrotation Yrotation
            JOINT Neck
            {
                OFFSET -0.000000 22.636055 2.057823
                CHANNELS 3 Zrotation Xrotation Yrotation
                JOINT Head
                {
                    OFFSET -0.000000 13.545651 -1.935093
                    CHANNELS 3 Zrotation Xrotation Yrotation
                    End Site
                    {
                        OFFSET -0.000000 24.188663 0.000000
                    }
                }
            }
            JOINT LeftShoulder
            {
                OFFSET 3.842306 20.701504 -0.286599
                CHANNELS 3 Zrotation Xrotation Yrotation
                JOINT LeftArm
                {
                    OFFSET 11.351986 0.000000 0.000000
                    CHANNELS 3 Zrotation Xrotation Yrotation
                    JOINT LeftForeArm
                    {
                        OFFSET 28.321957 0.000000 0.000000
                        CHANNELS 3 Zrotation Xrotation Yrotation
                        JOINT LeftHand
                        {
                            OFFSET 27.250586 0.000000 0.000000
                            CHANNELS 3 Zrotation Xrotation Yrotation
                            End Site
                            {
                                OFFSET 14.513199 0.000000 0.000000
                            }
                        }
                    }
                }
            }
            JOINT RightShoulder
            {
                OFFSET -3.895451 20.701504 -0.286599
                CHANNELS 3 Zrotation Xrotation Yrotation
                JOINT RightArm
                {
                    OFFSET -11.351986 0.000000 0.000000
                    CHANNELS 3 Zrotation Xrotation Yrotation
                    JOINT RightForeArm
                    {
                        OFFSET -28.321957 0.000000 0.000000
                        CHANNELS 3 Zrotation Xrotation Yrotation
                        JOINT RightHand
                        {
                            OFFSET -27.250586 0.000000 0.000000
                            CHANNELS 3 Zrotation Xrotation Yrotation
                            End Site
                            {
                                OFFSET -14.513199 0.000000 0.000000
                            }
                        }
                    }
                }
            }
        }
    }
    JOINT LeftUpLeg
    {
        OFFSET 9.675466 0.000000 0.000000
        CHANNELS 3 Zrotation Xrotation Yrotation
        JOINT LeftLeg
        {
            OFFSET -0.000000 -34.562881 0.000000
            CHANNELS 3 Zrotation Xrotation Yrotation
            JOINT LeftFoot
            {
                OFFSET -0.000000 -42.809692 0.000000
                CHANNELS 3 Zrotation Xrotation Yrotation
                JOINT LeftToeBase
                {
                    OFFSET -0.000000 -6.289052 14.513199
                    CHANNELS 3 Zrotation Xrotation Yrotation
                    End Site
                    {
                        OFFSET -0.000000 0.000000 3.870186
                    }
                }
            }
        }
    }
    JOINT RightUpLeg
    {
        OFFSET -9.675466 0.000000 0.000000
        CHANNELS 3 Zrotation Xrotation Yrotation
        JOINT RightLeg
        {
            OFFSET -0.000000 -34.562881 0.000000
            CHANNELS 3 Zrotation Xrotation Yrotation
            JOINT RightFoot
            {
                OFFSET -0.000000 -42.809692 0.000000
                CHANNELS 3 Zrotation Xrotation Yrotation
                JOINT RightToeBase
                {
                    OFFSET -0.000000 -6.289052 14.513199
                    CHANNELS 3 Zrotation Xrotation Yrotation
                    End Site
                    {
                        OFFSET -0.000000 0.000000 3.870186
                    }
                }
            }
        }
    }
}
MOTION
Frames:    12
Frame Time:    0.010000
-8.231342    87.377312    -12.168004    0.193356    -7.480659    2.932627    1.956917    -12.024404    0.249302    -7.128622    19.709019    1.282983    7.755218    23.826935    3.288573    -8.991737    49.774128    7.101618    5.380885    13.831540    12.335506    -61.915806    62.660400    -0.086462    38.380939    -42.008816    -70.738571    -53.377335    -16.353340    -1.761113    -3.702488    15.668913    -8.719978    73.092896    69.657936    -7.573275    -36.778564    -44.240261    74.831421    46.174744    -17.494555    4.367836    12.786785    21.628269    -9.469168    -0.239253    -7.121043    1.263808    -8.279828    0.426176    17.613222    0.000000    0.000000    0.000000    -10.772287    22.059246    1.360801    2.070578    -5.699722    -1.913028    12.994813    -1.586480    -13.265904    0.000000    0.000000    0.000000    
-8.275912    87.365334    -12.131355    0.128140    -7.405543    2.825129    1.897622    -12.015175    0.336125    -6.955676    19.646015    1.342539    7.831977    23.955940    3.194386    -9.016439    49.784172    7.028546    5.345301    13.989127    12.374503    -62.448601    62.408047    0.758597    37.829124    -42.243908    -71.925735    -55.337334    -16.218344    -2.199601    -3.684556    15.814961    -8.840576    74.216621    69.788696    -8.991432    -36.788036    -44.599121    75.414467    46.769535    -17.556915    4.532527    12.861875    21.566917    -9.333566    -0.301307    -7.059772    1.249336    -8.306315    0.364365    17.616764    0.000000    0.000000    0.000000    -10.687814    21.927629    1.386685    2.045326    -5.615006    -1.885060    12.958964    -1.659094    -13.234624    0.000000    0.000000    0.000000    
-8.275912    87.365334    -12.131355    0.128140    -7.405543    2.825129    1.897622    -12.015193    0.336125    -6.955676    19.646034    1.342542    7.831952    23.955881    3.194396    -9.016423    49.784225    7.028557    5.345331    13.989145    12.374520    -62.448574    62.408073    0.758524    37.829124    -42.243931    -71.925766    -55.337391    -16.218380    -2.199598    -3.684579    15.814978    -8.840593    74.216515    69.788666    -8.991337    -36.788013    -44.599083    75.414429    46.769508    -17.556929    4.532526    12.861875    21.566917    -9.333566    -0.301307    -7.059772    1.249336    -8.306315    0.364365    17.616764    0.000000    0.000000    0.000000    -10.687814    21.927629    1.386685    2.045326    -5.615006    -1.885060    12.958964    -1.659094    -13.234624    0.000000    0.000000    0.000000    
-8.275912    87.365334    -12.131355    0.128140    -7.405543    2.825129    1.897626    -12.015203    0.336126    -6.955681    19.646046    1.342543    7.831943    23.955881    3.194409    -9.016406    49.784241    7.028544    5.345267    13.989116    12.374495    -62.448639    62.408051    0.758607    37.829178    -42.243923    -71.925690    -55.337399    -16.218321    -2.199637    -3.684536    15.814952    -8.840555    74.216576    69.788605    -8.991400    -36.787979    -44.599094    75.414467    46.769543    -17.556896    4.532503    12.861875    21.566917    -9.333566    -0.301307    -7.059772    1.249336    -8.306315    0.364365    17.616764    0.000000    0.000000    0.000000    -10.687814    21.927629    1.386685    2.045326    -5.615006    -1.885060    12.958964    -1.659094    -13.234624    0.000000    0.000000    0.000000    
-8.275912    87.365334    -12.131355    0.128140    -7.405543    2.825129    1.897630    -12.015224    0.336127    -6.955685    19.646065    1.342545    7.831934    23.955868    3.194412    -9.016409    49.784279    7.028556    5.345301    13.989131    12.374498    -62.448616    62.408047    0.758597    37.829185    -42.243927    -71.925735    -55.337383    -16.218374    -2.199620    -3.684559    15.814955    -8.840566    74.216652    69.788689    -8.991452    -36.788067    -44.599083    75.414452    46.769516    -17.556973    4.532518    12.861875    21.566917    -9.333566    -0.301307    -7.059772    1.249336    -8.306315    0.364365    17.616764    0.000000    0.000000    0.000000    -10.687814    21.927629    1.386685    2.045326    -5.615006    -1.885060    12.958964    -1.659094    -13.234624    0.000000    0.000000    0.000000    
-8.275912    87.365334    -12.131355    0.128140    -7.405543    2.825129    1.897630    -12.015233    0.336127    -6.955685    19.646078    1.342547    7.831924    23.955833    3.194416    -9.016404    49.784298    7.028565    5.345303    13.989127    12.374488    -62.448627    62.408051    0.758600    37.829155    -42.243961    -71.925758    -55.337391    -16.218393    -2.199564    -3.684561    15.814970    -8.840557    74.216599    69.788666    -8.991394    -36.788013    -44.599060    75.414497    46.769485    -17.556976    4.532492    12.861875    21.566917    -9.333566    -0.301307    -7.059772    1.249336    -8.306315    0.364365    17.616764    0.000000    0.000000    0.000000    -10.687814    21.927629    1.386685    2.045326    -5.615006    -1.885060    12.958964    -1.659094    -13.234624    0.000000    0.000000    0.000000    
-8.275912    87.365334    -12.131355    0.128140    -7.405543    2.825129    1.897630    -12.015233    0.336127    -6.955685    19.646078    1.342547    7.831918    23.955833    3.194419    -9.016399    49.784298    7.028565    5.345303    13.989127    12.374488    -62.448627    62.408051    0.758600    37.829147    -42.243996    -71.925797    -55.337437    -16.218403    -2.199540    -3.684561    15.814970    -8.840557    74.216599    69.788666    -8.991394    -36.788025    -44.599098    75.414528    46.769512    -17.556982    4.532473    12.861875    21.566917    -9.333566    -0.301307    -7.059772    1.249336    -8.306315    0.364365    17.616764    0.000000    0.000000    0.000000    -10.687814    21.927629    1.386685    2.045326    -5.615006    -1.885060    12.958964    -1.659094    -13.234624    0.000000    0.000000    0.000000    
-8.275912    87.365334    -12.131355    0.128140    -7.405543    2.825129    1.897630    -12.015233    0.336127    -6.955685    19.646078    1.342547    7.831913    23.955814    3.194420    -9.016393    49.784309    7.028566    5.345303    13.989127    12.374488    -62.448627    62.408051    0.758600    37.829136    -42.244057    -71.925835    -55.337479    -16.218426    -2.199508    -3.684561    15.814970    -8.840557    74.216599    69.788666    -8.991394    -36.788033    -44.599083    75.414520    46.769512    -17.556992    4.532471    12.861875    21.566917    -9.333566    -0.301307    -7.059772    1.249336    -8.306315    0.364365    17.616764    0.000000    0.000000    0.000000    -10.687814    21.927629    1.386685    2.045326    -5.615006    -1.885060    12.958964    -1.659094    -13.234624    0.000000    0.000000    0.000000    
-8.275912    87.365334    -12.131355    0.128140    -7.405543    2.825129    1.897630    -12.015233    0.336127    -6.955685    19.646078    1.342547    7.831901    23.955809    3.194438    -9.016363    49.784306    7.028544    5.345303    13.989127    12.374488    -62.448627    62.408051    0.758600    37.829117    -42.244099    -71.925865    -55.337490    -16.218416    -2.199463    -3.684561    15.814970    -8.840557    74.216599    69.788666    -8.991394    -36.788040    -44.599072    75.414558    46.769485    -17.557022    4.532455    12.861875    21.566917    -9.333566    -0.301307    -7.059772    1.249336    -8.306315    0.364365    17.616764    0.000000    0.000000    0.000000    -10.687814    21.927629    1.386685    2.045326    -5.615006    -1.885060    12.958964    -1.659094    -13.234624    0.000000    0.000000    0.000000    
-8.275912    87.365334    -12.131355    0.128140    -7.405543    2.825129    1.897630    -12.015233    0.336127    -6.955685    19.646078    1.342547    7.831894    23.955795    3.194439    -9.016359    49.784309    7.028546    5.345303    13.989127    12.374488    -62.448627    62.408051    0.758600    37.829113    -42.244114    -71.925888    -55.337505    -16.218447    -2.199443    -3.684561    15.814970    -8.840557    74.216599    69.788666    -8.991394    -36.788033    -44.599094    75.414574    46.769497    -17.557043    4.532431    12.861875    21.566917    -9.333566    -0.301307    -7.059772    1.249336    -8.306315    0.364365    17.616764    0.000000    0.000000    0.000000    -10.687814    21.927629    1.386685    2.045326    -5.615006    -1.885060    12.958964    -1.659094    -13.234624    0.000000    0.000000    0.000000    
-8.275912    87.365334    -12.131355    0.128140    -7.405543    2.825129    1.897630    -12.015233    0.336127    -6.955685    19.646078    1.342547    7.831883    23.955795    3.194446    -9.016353    49.784325    7.028549    5.345303    13.989127    12.374488    -62.448627    62.408051    0.758600    37.829113    -42.244171    -71.925941    -55.337543    -16.218452    -2.199400    -3.684561    15.814970    -8.840557    74.216599    69.788666    -8.991394    -36.788040    -44.599094    75.414680    46.769470    -17.557104    4.532362    12.861875    21.566917    -9.333566    -0.301307    -7.059772    1.249336    -8.306315    0.364365    17.616764    0.000000    0.000000    0.000000    -10.687814    21.927629    1.386685    2.045326    -5.615006    -1.885060    12.958964    -1.659094    -13.234624    0.000000    0.000000    0.000000    
-8.275912    87.365334    -12.131355    0.128140    -7.405543    2.825129    1.897630    -12.015233    0.336127    -6.955685    19.646078    1.342547    7.831872    23.955788    3.194450    -9.016336    49.784325    7.028545    5.345303    13.989127    12.374488    -62.448627    62.408051    0.758600    37.829109    -42.244205    -71.925995    -55.337563    -16.218483    -2.199373    -3.684561    15.814970    -8.840557    74.216599    69.788666    -8.991394    -36.788033    -44.599072    75.414673    46.769444    -17.557121    4.532357    12.861875    21.566917    -9.333566    -0.301307    -7.059772    1.249336    -8.306315    0.364365    17.616764    0.000000    0.000000    0.000000    -10.687814    21.927629    1.386685    2.045326    -5.615006    -1.885060    12.958964    -1.659094    -13.234624    0.000000    0.000000    0.000000    
